<svg viewBox="0 0 100 100" width="800" height="800" fill="none" xmlns="http://www.w3.org/2000/svg" style="filter: drop-shadow(0 4px 6px rgba(0,0,0,0.5));">
  <defs>
    <!-- Blue L Gradient -->
    <linearGradient id="metal-blue" x1="0%" y1="0%" x2="100%" y2="100%">
      <stop offset="0%" stop-color="#3b82f6" />
      <stop offset="50%" stop-color="#2563eb" />
      <stop offset="100%" stop-color="#1e3a8a" />
    </linearGradient>
    <!-- Metal Silver T Gradient -->
    <linearGradient id="metal-silver" x1="0%" y1="0%" x2="0%" y2="100%">
      <stop offset="0%" stop-color="#ffffff" />
      <stop offset="40%" stop-color="#e2e8f0" />
      <stop offset="100%" stop-color="#94a3b8" />
    </linearGradient>
    
    <!-- Inner glow/bevel overlays -->
    <linearGradient id="bevel-blue" x1="0%" y1="0%" x2="100%" y2="100%">
      <stop offset="0%" stop-color="rgba(255,255,255,0.4)" />
      <stop offset="50%" stop-color="rgba(255,255,255,0)" />
      <stop offset="100%" stop-color="rgba(0,0,0,0.3)" />
    </linearGradient>
    <linearGradient id="bevel-silver" x1="0%" y1="0%" x2="0%" y2="100%">
      <stop offset="0%" stop-color="#ffffff" />
      <stop offset="50%" stop-color="rgba(255,255,255,0)" />
      <stop offset="100%" stop-color="rgba(0,0,0,0.4)" />
    </linearGradient>
  </defs>

  <!-- THE BACKING DARK CASE (Mimics the solid badge base behind the letters) -->
  <g transform="translate(0, 3)" stroke="#020617" stroke-width="26" stroke-linecap="round" stroke-linejoin="round">
    <path d="M 25,20 L 25,75 A 5,5 0 0,0 30,80 L 88,80" />
    <path d="M 52,20 L 88,20 M 70,20 L 70,55" />
    <!-- Connector to make shadow solid -->
    <path d="M 40,40 L 60,40" />
  </g>

  <!-- THE BLUE "L" -->
  <g>
    <!-- Base -->
    <path d="M 25,20 L 25,75 A 5,5 0 0,0 30,80 L 88,80" stroke="url(#metal-blue)" stroke-width="18" stroke-linecap="round" stroke-linejoin="round" />
    <!-- 3D Bevel/Shadow Overlay -->
    <path d="M 25,20 L 25,75 A 5,5 0 0,0 30,80 L 88,80" stroke="url(#bevel-blue)" stroke-width="18" stroke-linecap="round" stroke-linejoin="round" />
    <!-- Tech Indent Detail (Thin internal cut line) -->
    <path d="M 22,25 L 22,60" stroke="#1e3a8a" stroke-width="1.5" stroke-linecap="round" opacity="0.6" />
    <path d="M 21,26 L 21,60" stroke="rgba(255,255,255,0.3)" stroke-width="1" stroke-linecap="round" opacity="0.8" />
  </g>

  <!-- THE SILVER "T" -->
  <g>
    <!-- Base -->
    <path d="M 52,20 L 88,20 M 70,20 L 70,55" stroke="url(#metal-silver)" stroke-width="18" stroke-linecap="round" stroke-linejoin="round" />
    <!-- 3D Bevel/Shadow Overlay -->
    <path d="M 52,20 L 88,20 M 70,20 L 70,55" stroke="url(#bevel-silver)" stroke-width="18" stroke-linecap="round" stroke-linejoin="round" />
  </g>
</svg>
